<svg id="Layer_1" data-name="Layer 1" xmlns="http://www.w3.org/2000/svg" viewBox="0 0 1386.06 300.89"><defs><style>.cls-1,.cls-7{fill:#7d99ba;}.cls-2{fill:#d8e0ea;}.cls-3{fill:#9c301a;}.cls-4{fill:#d42e12;}.cls-5{fill:#cbcac8;}.cls-6{fill:#1a222a;}.cls-7{fill-rule:evenodd;}.cls-8{fill:#141515;}</style></defs><title>StellarFish_logo_color_fekvo_ok</title><path class="cls-1" d="M95,157.07c-15.56-22.41-44.45-24.53-44.45-24.53,42-24,77.84-19.87,96-15C177,98,215.06,80.23,254.69,78.28c3.51-1,6.83-1.89,9.83-2.57,2-4,9.73-17.38,24.3-14.23a8.5,8.5,0,0,1,2.18,2.8,86,86,0,0,1,21.51-8.56A93.74,93.74,0,0,0,302.06,39.2C258.37-15.62,160.72-9.44,83.87,53,44,85.38,17.6,126.55,7.51,166.32l76.82.89c2.46-2.46,6.09-6,10.71-10.14ZM223.14,22.31h0L232.21,4l3.43,22.76,26.67,9.79-28.6,4.75,3.09,15.81-12.58-14.8L201.06,54.35l17.88-22L198.59,18.7Zm-91.7,41.77h0l13,10.62,7.94-12.28-2,14.75,10.83,5.32-13.35,2.18-5.64,16.06-2.92-17.15-9.27,2,8.65-7.62Z" transform="translate(-2.97 -1.81)"/><path class="cls-1" d="M6.17,172A142.88,142.88,0,0,0,3,197.1l41.76-14.77Z" transform="translate(-2.97 -1.81)"/><path class="cls-1" d="M3.14,209.21a108.53,108.53,0,0,0,4.2,24.25l29.08-27.34Z" transform="translate(-2.97 -1.81)"/><path class="cls-1" d="M91.47,255.62s25.65-24.08,16.89-55.29c-3.68-.28-7.42-.6-11.25-1l0-.14a7.21,7.21,0,0,1-2.49-1.09L48,245.28l12.62-34L8.19,236.12A93,93,0,0,0,23.83,265.3C67.46,320.12,165.14,313.94,242,251.53c33.34-27.06,57.26-60.27,70.1-93.68-22.56,19.84-63.13,40.19-135.35,43.8-6.81,11.57-30.87,45-85.24,54Zm113.84-17.49h0l2.78-17.55,4.67,18.63,15.54-5.72-11.79,12,6.23,12.31-13.63-7.18-16,10.73,8.9-17.63-9.75-4.61Z" transform="translate(-2.97 -1.81)"/><path class="cls-2" d="M323.66,64.48c-16,1.35-29.49,11.26-29.49,11.26.77,1.6,1.54,3.09,2.3,4.52a127.37,127.37,0,0,1,22,6.56Z" transform="translate(-2.97 -1.81)"/><path class="cls-2" d="M335.82,95.23l11.84-1.43c2.16-11.79-6.54-26.68-6.54-26.68l-.91-.35-6.29,27.4c.62.35,1.27.69,1.9,1.06Z" transform="translate(-2.97 -1.81)"/><path class="cls-3" d="M341.68,116.1l38.07-21.93-1.05.12-46.46,15.94C277,189.57,121.43,189.88,86.91,190.17a20.63,20.63,0,0,0,4.19,5.38,22.2,22.2,0,0,0,3.49,2.58,7.21,7.21,0,0,0,2.49,1.09l0,.14c3.83.37,7.57.69,11.25,1a534.57,534.57,0,0,0,68.35,1.32c72.22-3.61,112.79-24,135.35-43.8a103.42,103.42,0,0,0,17.26-19.24c8.37-12.2,10.24-21.27,10.24-21.27Z" transform="translate(-2.97 -1.81)"/><path class="cls-4" d="M333.69,99.7a128.36,128.36,0,0,0-48.93-16.89c-.08.2-.17.43-.25.66,18.71,47.55-13.44,63.7-13.44,63.7-29.53,14.17-47.14-5-55.56-19.24l-71.46,29c-17.12,4.07-13.43,31-13.43,31l-9.1.11a43,43,0,0,1-.46-4.86l-2.15,0c-4.14-26.45,19.59-37.82,19.59-37.82l68.88-35.87c6.43-11.4,18.14-19.38,30.3-24.91C166.76,98.21,104.85,155.79,89.48,171v0c-3.82,2.49-5.44,11.56-3.74,16.46a18.32,18.32,0,0,0,1.17,2.69c34.52-.29,190.12-.6,245.33-79.94L378.7,94.29l-4.05.48Z" transform="translate(-2.97 -1.81)"/><path class="cls-2" d="M221.18,114.7s5,15.09,16.47,23.56l10.35-45c-10.69,4.49-21.37,11.28-26.82,21.41Z" transform="translate(-2.97 -1.81)"/><path class="cls-2" d="M275.55,85.61c-.57.09-1.19.17-1.9.32L260.5,143.22a41.92,41.92,0,0,0,9.3-3.27s26.67-13.4,9.41-53.16c-.23-.55-.46-1.06-.68-1.61,0,0-1.11.12-3,.43Z" transform="translate(-2.97 -1.81)"/><path class="cls-5" d="M269,74.73a17.41,17.41,0,0,0-.9,3.84v.17a12.44,12.44,0,0,1,4.82-1.06c2.35.09,4.11,1.2,6.52,2.72l.25-.26c-1.47-5.32-7.2-5.21-7.2-5.21,3.83-8.41,13.92-6.52,13.92-6.52-7.14.63-9.89,4.72-9.89,4.72a10.14,10.14,0,0,1,5.41,3.21,14.78,14.78,0,0,1,10.26-1.75l.48.09.71.17c-.05-.55-.17-1.06-.25-1.55a13.79,13.79,0,0,0-1.39-3.75,2,2,0,0,0-.28-.43,9.73,9.73,0,0,0-1.34-1.72,7.54,7.54,0,0,0-1.16-.94c-13.41-3.72-18.23,3.38-20,8.27Z" transform="translate(-2.97 -1.81)"/><path class="cls-6" d="M146.55,117.54c-18.12-4.87-54-9-96,15,0,0,28.89,2.12,44.45,24.53a397.55,397.55,0,0,1,51.51-39.53Z" transform="translate(-2.97 -1.81)"/><path class="cls-6" d="M108.36,200.33c8.76,31.21-16.89,55.29-16.89,55.29,54.37-9,78.43-42.4,85.24-54a534.57,534.57,0,0,1-68.35-1.32Z" transform="translate(-2.97 -1.81)"/><path class="cls-6" d="M352.54,88C351.35,75.19,344,62.57,344,62.57c-20-8.68-41.67.51-52.55,6.55a2,2,0,0,1,.28.43,13.79,13.79,0,0,1,1.39,3.75c.08.49.2,1,.25,1.55l-.71-.17-.48-.09a14.78,14.78,0,0,0-10.26,1.75,10.14,10.14,0,0,0-5.41-3.21s2.75-4.09,9.89-4.72c0,0-10.09-1.89-13.92,6.52,0,0,5.73-.11,7.2,5.21l-.25.26c-2.41-1.52-4.17-2.63-6.52-2.72a12.44,12.44,0,0,0-4.82,1.06v-.17a7.62,7.62,0,0,0-.09,1.75c-17.49,4-46.34,13.42-58,34L141.1,150.23s-20.77,10-20,33a43,43,0,0,0,.46,4.86l9.1-.11s-3.69-26.94,13.43-31l71.46-29c8.42,14.2,26,33.41,55.56,19.24,0,0,32.15-16.15,13.44-63.7.08-.23.17-.46.25-.66a5.81,5.81,0,0,1,5.5-3.64c2.07.32,4.14.69,6.21,1.09-.76-1.43-1.53-2.92-2.3-4.52,0,0,13.5-9.91,29.49-11.26a36.52,36.52,0,0,1,16.55,2.29l.91.35s8.7,14.89,6.54,26.68l5-.6a35.44,35.44,0,0,0-.11-5.24ZM269.8,140h0a41.92,41.92,0,0,1-9.3,3.27,27.54,27.54,0,0,1-22.85-5c-11.48-8.47-16.47-23.56-16.47-23.56,5.45-10.13,16.13-16.92,26.82-21.41a124.39,124.39,0,0,1,25.65-7.36c.71-.15,1.33-.23,1.9-.32,1.87-.31,3-.43,3-.43.22.55.45,1.06.68,1.61C296.47,126.55,269.8,140,269.8,140Z" transform="translate(-2.97 -1.81)"/><path class="cls-1" d="M1333.41,124.58l9.47-42.29-40.56,4.78-31.24,138.26,39.88-.89.09-.31,2-.12q11.87-51.7,12-52.11a21.17,21.17,0,0,1,3.74-7.81,16,16,0,0,1,7.18-5.36c3.94-1.46,7-.34,9.29,3.21a9.73,9.73,0,0,1,1.14,6.41c-.12,1-.31,2.09-.6,3.44l-.48,1.86-.34,1.72-1.42,5.78-1.41,5.81c-.77,3.47-1.79,7.73-3.09,12.8l-3.26,12.77-1.45,5.9,34,4.89,19.33-64.9a21.46,21.46,0,0,0,.26-5.58,25,25,0,0,0-4.06-12.2c-3.34-5.12-8.56-9-15.7-11.8q-13.27-5.06-34.7-4.26Z" transform="translate(-2.97 -1.81)"/><path class="cls-1" d="M1273.52,175.48c-2.41-5.49-6.92-10.1-13.47-13.85-2.07-1.12-5-2.64-9-4.44l-4.59-2.15c-1.65-.77-3.12-1.54-4.43-2.2l-.45-.2-.51-.32c-.37-.23-.71-.43-1.08-.63-.9-.51-1.78-1-2.61-1.52a31.92,31.92,0,0,1-5.24-4.18c-3.66-3.92-3.4-7.53.71-10.73,3.23-2.55,6.43-3.44,9.67-2.75a9.15,9.15,0,0,1,6.46,5.38l13.75-24.48q-3.15-1-6-1.74a51.9,51.9,0,0,0-18.66-1.41,63.15,63.15,0,0,0-22,7c-8.08,4.21-14.31,9.33-18.79,15.37a45.2,45.2,0,0,0-8,17.27c-1.59,6.9.51,13.45,6.41,19.7a36.07,36.07,0,0,0,9.35,7.3c.54.28,1.19.57,2,.91l2,1c1.9.89,3.34,1.58,4.31,2.12,3.17,1.83,5.16,3.81,5.92,6s.31,4.87-1.5,7.73a14.73,14.73,0,0,1-7.29,5.9,30.23,30.23,0,0,1-14,1.41,31.3,31.3,0,0,1-12.44-3.87l-17.47,25.11c2.36.86,5.62,2,9.87,3.52,1.33.49,2.8,1,4.36,1.43l.8.32c.2.05.42.11.68.2a3.17,3.17,0,0,0,.9.31,86.37,86.37,0,0,0,17.38,4.27,67.79,67.79,0,0,0,23.3-1.32,77.33,77.33,0,0,0,23.5-9.59,68.1,68.1,0,0,0,21.88-21.22q9.24-14.5,4.26-25.68Z" transform="translate(-2.97 -1.81)"/><polygon class="cls-1" points="1145.62 122.17 1185.7 117.82 1188.91 93.22 1152.99 92.19 1145.62 122.17"/><polygon class="cls-1" points="1138.11 138.92 1183.92 132.71 1157.39 221.52 1124.99 217.25 1138.11 138.92"/><polygon class="cls-1" points="1018.66 220.8 1048.37 91.91 1157.87 75.44 1145.96 120.82 1075.69 128.04 1071.1 145.5 1121.16 141.47 1112.23 175.51 1062.09 183.72 1051.51 223.95 1018.66 220.8"/><path class="cls-7" d="M844.18,157.73l11.25-26.11-.11,28.12,20,4.86L859,169.33l-1.7,27-10.72-17.5-.34-.54L823.15,186,836,168.38h0l-9.13-13,16.58,4.09Zm6.66,59.41a70.83,70.83,0,0,0,9.56-6.93l-2,9.34,35.78-13.92,10.66-79.73-20.41,1.83a27.94,27.94,0,0,0-20.36-13,40.61,40.61,0,0,0-18.48,2,59.81,59.81,0,0,0-5.7,2.2,70.35,70.35,0,0,0-12.78,7.65,85.47,85.47,0,0,0-28.26,37.16q-9.1,22.84-2.92,40.74a30.42,30.42,0,0,0,8.93,13.8A27.59,27.59,0,0,0,819.72,225a40.94,40.94,0,0,0,20.52-2.67,58.76,58.76,0,0,0,10.6-5.15Z" transform="translate(-2.97 -1.81)"/><path class="cls-1" d="M950.51,123.26l-35,2.84-18.9,99.23,43.62-4.75,6.07-56.89c8.64-8.59,18.22-11.54,28.85-8.85a31.34,31.34,0,0,1,13.3,6.53l16.41-39.11q-14.16-7.12-30.27-2.38c-8.28,2.47-16.64,7.16-25.15,14.15Z" transform="translate(-2.97 -1.81)"/><polygon class="cls-1" points="734.88 223.52 763.51 84.98 814.08 80.8 777 215.22 734.88 223.52"/><polygon class="cls-1" points="679.07 223.52 707.7 84.98 758.24 80.8 721.16 215.22 679.07 223.52"/><path class="cls-1" d="M625.66,197.41l2.21-15.14,60.6-31A42.24,42.24,0,0,0,674,128.93a44.64,44.64,0,0,0-26.11-9.73,53.52,53.52,0,0,0-21.12,3.06,61.46,61.46,0,0,0-18.9,10.36,66.39,66.39,0,0,0-14.72,16.24,60.23,60.23,0,0,0-8.39,20.41q-4.5,21.94,7.46,38.31t33.67,17.66a55.58,55.58,0,0,0,27.67-5.69,65,65,0,0,0,22.51-17.64Zm32.2-48.67-27.24,14.83,2.47-16.95Z" transform="translate(-2.97 -1.81)"/><polygon class="cls-1" points="599.41 101.56 576.4 104.59 582.95 81.23 541.05 82.23 535.95 109.97 513.24 113.01 505.53 139.35 530.84 137.6 516.5 215.53 547.14 209.95 567.92 134.97 589.32 133.54 599.41 101.56"/><path class="cls-1" d="M363.51,206.55q26.75-33.59,26.73-33.7c-.48.72,0,2.35,1.56,4.84.51.83,1.11,1.74,1.81,2.75.23.28.49.6.74.94a1.08,1.08,0,0,1,.23.32l.05.17.09.08c3.12,4,7.57,6.88,13.41,8.74a27.37,27.37,0,0,0,17.63.11,16,16,0,0,0,8.33-6.7c2.3-3.38,3.15-6.56,2.58-9.45s-2.44-5.55-5.64-8.13a42.38,42.38,0,0,0-4.17-3l-2.12-1.4c-.71-.57-1.36-1-1.82-1.43a37.39,37.39,0,0,1-8.95-10c-5.45-8.25-6.86-16.64-4.37-25.08a44.8,44.8,0,0,1,2.75-7.94,74,74,0,0,1,4.31-8,63.29,63.29,0,0,1,6.77-8.9,58.26,58.26,0,0,1,23.05-15.35c11.2-4.15,24.12-5.24,38.81-3.38A35.88,35.88,0,0,1,503,90.82,30.49,30.49,0,0,1,512.39,106c2,7.44,1.41,16.12-1.56,26l-38.5-.51c.12,0,.31-.4.6-1.23a29.34,29.34,0,0,0,.85-3.24,30.29,30.29,0,0,0,.48-9.45c-.48-3.69-1.84-6.29-4-7.73-2.77-1.74-6.72-1.63-11.87.43-3.52,1.35-5.28,3.67-5.25,7a15.8,15.8,0,0,0,.82,4.06c.46,1.18,1,2.35,1.59,3.58,2.24,4,6.41,7.82,12.45,11.57l3.85,2.23,3.74,2.24a64.12,64.12,0,0,1,6.92,5.06c9.81,8.74,14.74,18,14.68,27.86q0,10.78-8.9,22.85a67.22,67.22,0,0,1-9.1,9.85,98.24,98.24,0,0,1-11,8.93,91.4,91.4,0,0,1-14.68,8.45A72.64,72.64,0,0,1,414.08,230q-25.26-3-50.57-23.47Z" transform="translate(-2.97 -1.81)"/><path class="cls-8" d="M1333.7,124.44c14.91-.61,26.78.83,35.51,4.26,7,2.84,12.28,6.9,15.65,12.2a25.84,25.84,0,0,1,4.08,12.71,21.86,21.86,0,0,1-.28,6.1l-19.22,66.65L1333.89,221l1.73-7.21,3.15-12.8c1.25-5,2.21-9.3,3-12.77l1.36-5.81,1.36-5.67.34-1.86.48-1.83c.25-1.29.43-2.35.51-3.21a8.5,8.5,0,0,0-.91-5.58c-1.87-3.06-4.39-4-7.54-2.89a14.18,14.18,0,0,0-5.95,4.69,19.41,19.41,0,0,0-3.29,7.1q-.08.44-11.9,53.54l-2,.12-.11.4-41.39.91L1303.59,87l42.15-5.15L1333.3,126Zm8.44-39.11-36.31,4.35L1276.24,225.1l35.74-.89.06-.23,2-.08c7.42-33.56,11.14-50.42,11.19-50.71a23.46,23.46,0,0,1,4-8.53,17.54,17.54,0,0,1,7.88-6.1c4.45-1.66,7.93-.46,10.46,3.67a11.39,11.39,0,0,1,1.27,7.21c-.11,1-.34,2.24-.62,3.64l-.45,1.83-.34,1.63-1.39,5.9-1.36,5.81c-.8,3.47-1.76,7.73-3,12.77l-3.15,12.8-1.07,4.58,30.13,4.47,18.14-63.16a21.12,21.12,0,0,0,.23-5.1,24.46,24.46,0,0,0-3.74-11.68q-4.68-7.31-14.74-11.39-12.56-5-37.42-3.53Z" transform="translate(-2.97 -1.81)"/><path class="cls-8" d="M1275.1,175.86q5.19,11.85-4.25,27.11a69.82,69.82,0,0,1-21.8,22,78.39,78.39,0,0,1-23.44,9.85,65.68,65.68,0,0,1-23,1.31,76.87,76.87,0,0,1-16.81-4.26,2.9,2.9,0,0,1-1.07-.43c-.23-.06-.49-.12-.71-.2l-.71-.32c-1.5-.43-3-.91-4.31-1.4-4.11-1.49-7.71-2.86-10.86-4.07l18.91-28a32.73,32.73,0,0,0,12.78,4.38,25.82,25.82,0,0,0,12.7-1.35,12.67,12.67,0,0,0,6-5c1.45-2.35,1.84-4.5,1.25-6.41s-2.41-3.7-5.33-5.47c-.88-.46-2.18-1.15-4-2l-2-1.06a16.37,16.37,0,0,1-1.93-.88,38.81,38.81,0,0,1-9.38-7.53c-5.89-6.56-8-13.55-6.35-20.9a48.61,48.61,0,0,1,8.08-18q6.67-9.45,18.85-15.95a61.33,61.33,0,0,1,21.94-7.21,52.31,52.31,0,0,1,18.51,1.43c1.9.48,4.31,1.2,7.23,2.26l-15.7,28.94c-1.85-4.29-4.06-6.72-6.61-7.32s-5.3.14-8,2.31c-3,2.44-3.09,5.24-.17,8.45a31.58,31.58,0,0,0,4.93,4c.77.48,1.59,1,2.5,1.54.34.2.68.4,1,.63l.42.2.45.2c1.25.66,2.7,1.44,4.29,2.24L1253,157q5.68,2.79,8.75,4.58c6.55,3.83,11,8.53,13.38,14.26Zm-2.77,1.8c-2.22-5.27-6.47-9.73-12.65-13.37-2-1.12-4.79-2.58-8.61-4.38l-4.45-2.15c-1.62-.8-3-1.57-4.28-2.23l-.46-.2-.54-.4c-.34-.23-.71-.43-1-.63-.87-.52-1.72-1.06-2.52-1.52a29.14,29.14,0,0,1-5.24-4.27c-4.2-4.66-3.83-9,1.22-13.11,3.51-2.86,7-3.89,10.68-3.12,3.29.86,5.22,2,5.87,3.44l10.89-20c-1.14-.34-2.61-.74-4.34-1.23a46.73,46.73,0,0,0-17.55-1.4,59.24,59.24,0,0,0-20.72,6.78c-7.51,4.07-13.38,9-17.55,14.75a44.94,44.94,0,0,0-7.31,16.58q-2.13,9.62,6,18.46a33.67,33.67,0,0,0,8.7,7.13c.51.26,1.17.55,1.93.89l2,1a36.33,36.33,0,0,1,4.22,2.23q4.89,2.88,6.21,6.47c.93,2.75.37,5.79-1.67,9.08a16.29,16.29,0,0,1-8.08,6.81,30.32,30.32,0,0,1-14.32,1.49,26.54,26.54,0,0,1-11.31-3.32l-14.82,22.13c1.33.55,4,1.55,8.13,3,1.25.48,2.64,1,4.14,1.43l.88.31a2.13,2.13,0,0,0,.54.2,3.29,3.29,0,0,0,.71.2,81,81,0,0,0,16.83,4.27,59.45,59.45,0,0,0,22.06-1.32,70.47,70.47,0,0,0,22.05-9.24,63.69,63.69,0,0,0,20.5-20.53q8.5-13.78,3.94-24.28Z" transform="translate(-2.97 -1.81)"/><path class="cls-8" d="M1155.48,93.74l37.45,1-3.43,27.46-42,4.73Zm-4.19,29.81,35.57-4,2.78-21.7-32.06-1Z" transform="translate(-2.97 -1.81)"/><path class="cls-8" d="M1131.16,219l28.69,3.84,24.6-85.32-41.1,5.78Zm9.75-78.33,47.51-6.62-26.73,92.28-33.93-4.7Z" transform="translate(-2.97 -1.81)"/><path class="cls-8" d="M1021.74,225.3,1051.2,93.66l109-17-12.33,48.64-68,7.22L1076.17,147l48.41-4.07-9.38,37-48.5,8.22-10.29,40.54Zm32.57.11,10.12-39.91,48.53-8.21,7.88-31.12-48.41,4.06,5.21-20.53,68-7.21,10.68-42.12L1053.43,96.32l-28,126.15Z" transform="translate(-2.97 -1.81)"/><path class="cls-8" d="M953.46,132.05a63.51,63.51,0,0,1,22.39-12.31,40.13,40.13,0,0,1,31.29,2.86L989.8,165.29a32.48,32.48,0,0,0-13.89-7.64c-9.75-2.55-18.34,0-25.83,7.73l-6,57.8-45.27,5.18L917.66,126l36.76-3Zm-2.38-5.87-31,2.64-17.66,96.11,39.06-4.38,5.72-56c9.22-9.45,19.25-12.8,30.08-9.94,5.3,1.35,9.21,3.15,11.76,5.41l14.37-35.58q-12.29-6.41-27.24-1.84-11.73,3.57-26.24,16Z" transform="translate(-2.97 -1.81)"/><path class="cls-8" d="M893.73,206l10-77.21-19.05,1.83q-7-11.3-19.25-13.11a36.36,36.36,0,0,0-17.2,1.83,60.7,60.7,0,0,0-17.32,9.53,82.77,82.77,0,0,0-26.62,36.28c-5.73,14.91-6.63,28.11-2.75,39.71a29.35,29.35,0,0,0,8.33,13.42,25.4,25.4,0,0,0,13.86,6.42,36.37,36.37,0,0,0,19-2.58q9.78-3.74,21.92-14.43l-2.27,10.91ZM858.55,223.1l1.7-7.85A56.42,56.42,0,0,1,843.19,225q-10.89,4.13-20.67,2.72a27.92,27.92,0,0,1-15-7,33.62,33.62,0,0,1-8.93-14.2c-4.08-12.25-3.09-26.2,2.92-41.74a87.46,87.46,0,0,1,28.07-38.08A63.65,63.65,0,0,1,848,116.53a41.31,41.31,0,0,1,18.62-2.06q13.23,2.07,20.07,12.91l20.41-1.83L896.4,207.84Z" transform="translate(-2.97 -1.81)"/><path class="cls-8" d="M780.49,217.08,815.64,85.53l-45.84,4L742.73,224.81Zm-41.42,11.37L767.39,86.64l52-4.38-36.6,137.26Z" transform="translate(-2.97 -1.81)"/><path class="cls-8" d="M682,228.45,710.36,86.64l52-4.38L725.78,219.52Zm41.41-11.37L758.6,85.53l-45.83,4L685.7,224.81Z" transform="translate(-2.97 -1.81)"/><path class="cls-8" d="M676.94,201.88c-7.43,9.25-15.48,16-24.24,20.27a54.37,54.37,0,0,1-27.58,5.9c-14.29-.8-25.46-6.84-33.42-18.07s-10.38-24.28-7.37-39.33a63.47,63.47,0,0,1,8.36-21,69.06,69.06,0,0,1,14.71-16.89,61.18,61.18,0,0,1,18.94-10.65,51.61,51.61,0,0,1,21-3.15,43.3,43.3,0,0,1,25.91,9.93q10.59,9.06,14.66,24.28l-59.11,31.21L627,197.3Zm-53.18-1.75,2.38-17.37L684.34,152A38.76,38.76,0,0,0,671,131.54,41.58,41.58,0,0,0,646.41,122a49,49,0,0,0-19.82,3A56.24,56.24,0,0,0,609,135a63,63,0,0,0-13.8,15.66,59.92,59.92,0,0,0-7.85,19.78c-2.81,14.23-.46,26.69,7.08,37.28s18.17,16.49,31.72,17.32A50.61,50.61,0,0,0,652,219.52a55.24,55.24,0,0,0,19.36-15Z" transform="translate(-2.97 -1.81)"/><path class="cls-8" d="M661.29,148.91l-32.91,18.5,2.92-21.13Zm-27.52.63L632,162.34l19.79-11.16Z" transform="translate(-2.97 -1.81)"/><path class="cls-8" d="M602.39,106.86,581.47,110l7-23.62-42.1,1L541,114.9l-20.69,3-7.46,23.73L536,139.92l-15.39,77.62,30.16-5.07,22.45-75L592.44,136Zm-7.66,31.46-19.27,1.43-22.34,74.93-35.94,6.07,15.42-78.13L509,144.28l9.1-28.83,20.63-3.07,5.5-27.94,48.25-1.06-7,23.13,21.17-3.06Z" transform="translate(-2.97 -1.81)"/><path class="cls-8" d="M387.46,179.29c3.46-2.92,5.79-3.35,7-1.32.54.81,1.08,1.69,1.7,2.64.23.28.51.6.82.94a.75.75,0,0,1,.23.49l0,.2,0-.11a25.32,25.32,0,0,0,12.47,8.44,25,25,0,0,0,16.21.09,13.42,13.42,0,0,0,6.92-5.9c2-3,2.72-5.7,2.21-8.22s-2.12-5-5-7.5c-.85-.66-2.18-1.63-3.91-2.86l-2.21-1.4c-.68-.55-1.3-1-1.76-1.44a37.69,37.69,0,0,1-8.9-10.27c-5.38-8.54-6.86-17.24-4.36-26.11a53.38,53.38,0,0,1,2.8-8.22,80.15,80.15,0,0,1,4.31-8.22,55.74,55.74,0,0,1,6.72-9.25,59.24,59.24,0,0,1,23.13-15.94Q462.44,79,484.1,81.89a35.15,35.15,0,0,1,17.77,9,31.48,31.48,0,0,1,9.35,15.63c1.9,7.73,1.25,17.18-2,28.26l-38.38-.52a16.33,16.33,0,0,0-.65-2.83,26.28,26.28,0,0,0,.76-3.06,32.09,32.09,0,0,0,.46-9c-.46-3.32-1.56-5.64-3.4-6.93-2.36-1.49-5.79-1.32-10.26.51a5.42,5.42,0,0,0-3.83,5.19,19.06,19.06,0,0,0,.82,3.66,32.09,32.09,0,0,0,1.45,3.47c2.09,3.78,6,7.5,11.68,11.16l3.71,2.23,3.63,2.24a49.92,49.92,0,0,1,6.86,5.18c9.69,8.93,14.6,18.47,14.6,28.63,0,7.59-3.07,15.58-9,23.91a74.38,74.38,0,0,1-9.1,10.25,96.37,96.37,0,0,1-10.86,9,87.44,87.44,0,0,1-14.54,8.64,70.23,70.23,0,0,1-39.06,6.3q-24.75-3.14-50.43-24.48Zm-19.67,28.06q23.26,19.5,47.45,22.45a66.23,66.23,0,0,0,37.19-5.9,91.18,91.18,0,0,0,13.84-8.22,100.31,100.31,0,0,0,10.43-8.85,63.69,63.69,0,0,0,8.53-9.44c5.53-7.79,8.31-15.09,8.28-21.85.08-9.5-4.57-18.47-13.86-27a59.92,59.92,0,0,0-6.52-5l-3.6-2.23-3.75-2.23q-9-5.67-12.41-12c-.6-1.2-1.16-2.43-1.62-3.64a17.58,17.58,0,0,1-.82-4.46c0-4.21,2.1-7.16,6.35-8.85,5.5-2.23,9.75-2.32,12.73-.31,2.38,1.54,3.85,4.4,4.33,8.53a32.8,32.8,0,0,1-.45,9.85,25.91,25.91,0,0,1-.88,3.46c-.56,1.78-1.07,1.63-1.44-.43t35.66.55c2.55-8.68,2.89-16.58,1.07-23.77a29.41,29.41,0,0,0-8.81-14.63,32.47,32.47,0,0,0-16.56-8.47C469,83,456.77,84.1,446.2,88.16a54.17,54.17,0,0,0-21.43,14.75,62.64,62.64,0,0,0-6.38,8.61,61.21,61.21,0,0,0-4,7.85,44.22,44.22,0,0,0-2.6,7.59c-2.33,8.1-.94,16.09,4.11,24.1a36.84,36.84,0,0,0,8.44,9.65c.46.4,1.08.86,1.76,1.43l2,1.4a27.4,27.4,0,0,1,4.08,3.07c3.34,2.69,5.27,5.61,5.84,8.73.59,3.32-.34,6.87-2.81,10.68a18,18,0,0,1-9.1,7.5,26.7,26.7,0,0,1-17.94-.11c-5.87-1.95-10.35-5-13.5-9l-.19-.32-.06-.2c0,.06-.09,0-.17-.11a2.24,2.24,0,0,0-.65-.89c-.68-1.12-1.31-2.06-1.79-2.83q1.2-5.41-24,27.31Z" transform="translate(-2.97 -1.81)"/><path class="cls-8" d="M839.33,170.36l-11.7,14.4,21.23-6,8.19,13.8,1.05-21.39,11.39-4.44-14.2-4.44.46-21-11,21.16L832.62,160l7.42,9.45Zm-16.69,16.09,13.8-17-10.71-13.68,17.52,3.46,15.53-29.95-.65,30.95,19.93,6.19-17.24,6.73L859.4,202l-11.85-20-27.75,7.87Z" transform="translate(-2.97 -1.81)"/></svg>
